<?xml version="1.0" encoding="utf-8"?>
<!-- Generator: Adobe Illustrator 25.0.1, SVG Export Plug-In . SVG Version: 6.00 Build 0)  -->
<svg version="1.1" id="Capa_1" xmlns="http://www.w3.org/2000/svg" xmlns:xlink="http://www.w3.org/1999/xlink" x="0px" y="0px"
	 viewBox="0 0 512 512" style="enable-background:new 0 0 512 512;" xml:space="preserve">
<style type="text/css">
	.st0{fill:#FFFFFF;}
</style>
<rect width="512" height="512"/>
<path class="st0" d="M144.3,139.7c-1.1,3.1-2.3,6.5-3.5,10c-1.2,3.6-2.4,7.3-3.5,10.8c-1.2,3.7-2.3,7.3-3.5,10.7
	c-1.2,3.5-2.3,6.8-3.5,9.9l-0.8,2h32.1l-15.9-47.5L144.3,139.7z M133.9,180.2c0.9-2.5,1.8-5.2,2.8-8c1.2-3.5,2.3-7.1,3.5-10.8
	c1.1-3.5,2.3-7.1,3.5-10.8c0.7-2,1.3-4,2-5.9l11.9,35.4H133.9z M212.9,228L165.2,105l-2.3-5.2l-0.2-0.3c-0.4-0.6-1-1.2-1.8-1.9
	c-1-0.9-2.2-1.3-3.6-1.3h-23.2c-0.7,0-1.4,0.1-2.1,0.4c-0.7,0.3-1.3,0.6-1.9,1.1c-0.6,0.4-1.1,0.9-1.5,1.5c-0.5,0.6-0.7,1.1-0.9,1.7
	L78.5,228.4c-1,2.5,0.1,3.9,0.9,4.5c1,0.8,2.3,1.2,3.8,1.2h26.8c3,0,5-1.5,6-4.3c1.1-3.1,2.3-6.1,3.5-9.2c1.1-2.7,2.1-5.5,3.1-8.3
	h46.1c1,2.8,2.1,5.5,3.1,8.2c1.1,3,2.3,6.1,3.5,9.2c0.5,1.5,1.3,2.6,2.3,3.3c1,0.7,2.3,1,4.1,1h26c2.1,0,3.6-0.6,4.6-1.6
	C213.1,231.6,213.8,230.2,212.9,228z M210.1,230.5c-0.4,0.4-1.2,0.6-2.3,0.6h-26c-1.1,0-1.9-0.2-2.4-0.5c-0.5-0.3-0.9-0.9-1.2-1.9
	c-1.2-3.1-2.4-6.2-3.5-9.2c-1.1-3.1-2.3-6.1-3.4-9.2l-0.4-1h-50.3l-0.4,1c-1.1,3.1-2.3,6.1-3.5,9.2c-1.2,3.1-2.3,6.1-3.5,9.3
	c-0.6,1.6-1.6,2.4-3.2,2.4H83.2c-0.8,0-1.4-0.2-1.9-0.6c-0.1-0.1-0.3-0.2,0.1-1l49.3-127.6l0.1-0.3c0,0,0-0.2,0.3-0.5
	c0.3-0.3,0.6-0.6,0.9-0.9c0.4-0.3,0.8-0.5,1.2-0.7c0.4-0.1,0.7-0.2,1-0.2h23.2c0.7,0,1.2,0.2,1.6,0.6c0.6,0.5,1,0.9,1.3,1.3l2.2,4.9
	l47.7,122.9C210.5,230,210.2,230.3,210.1,230.5z M340.8,231.4c0.6-1,1.2-2.1,1.7-3.2c0.6-1.1,1.1-2.3,1.5-3.4
	c7.8-20.5,15.6-41,23.3-61.2c7.6-19.9,15.5-40.5,23.3-61.2l0.1-0.3v-0.3c0-0.2,0-0.2,0-0.3c0.2-0.4,0.2-0.8,0.2-1.3
	c0-1.2-0.5-4-4.9-4H357c-2.9,0-5.1,1.5-6.1,4.5l-26.3,78.3l-24.3-78.3c-1.1-2.9-3.3-4.4-6.4-4.4h-29.5c-1.8,0-3.1,0.4-4,1.2
	c-0.9,0.8-1.4,1.9-1.4,3.2c0,0.5,0,0.9,0.1,1.2v0.3l16.1,46l-10.6,31.1l-28-78.6c-1.1-2.9-3.3-4.4-6.4-4.4h-28.6
	c-1.8,0-3.1,0.4-4,1.2c-0.9,0.8-1.4,1.9-1.4,3.2c0,0.5,0,0.9,0.1,1.2v0.4l0.1,0.3c4.1,10.5,8.3,21.3,12.6,31.9
	c4.3,10.6,8.6,21.2,12.9,31.8c4.2,10.3,8.6,21,12.9,31.8c4.3,10.6,8.5,21.3,12.5,31.8c0.3,0.9,1,1.8,2,2.8c1.1,1.1,2.5,1.6,4.1,1.6
	h22.2c1.7,0,3-0.3,3.9-1.1c0.9-0.7,1.6-1.6,2-2.7l12.9-34c1.6,4.2,3.1,8.4,4.7,12.5c2,5.3,4,10.8,6,16.2c0.3,0.9,0.7,1.8,1.1,2.8
	c0.4,1,1,2,1.5,2.9c0.6,0.9,1.4,1.7,2.2,2.4c1,0.8,2.1,1.1,3.3,1.1h22.2C338.8,234.1,340.2,232.6,340.8,231.4z M311.9,230.6
	c-0.6-0.4-1.1-1-1.5-1.7c-0.5-0.7-0.9-1.5-1.3-2.4c-0.4-0.9-0.7-1.8-1-2.6c-2-5.4-4-10.9-6-16.2c-2-5.3-4-10.7-6.1-16.2l-1.4-3.7
	l-15.8,41.5c-0.2,0.6-0.5,1-1,1.3c-0.4,0.3-1.2,0.5-2.1,0.5h-22.2c-0.8,0-1.5-0.3-2-0.8c-0.8-0.8-1.2-1.4-1.3-1.7
	c-4-10.5-8.2-21.2-12.5-31.8c-4.3-10.8-8.7-21.5-12.9-31.8c-4.3-10.6-8.6-21.2-12.9-31.8c-4.3-10.5-8.5-21.1-12.5-31.6l0-0.2
	l-0.1-0.2c0,0,0-0.1,0-0.6c0-0.5,0.2-0.8,0.4-0.9c0.1-0.1,0.5-0.4,2-0.4h28.6c1.9,0,3,0.8,3.6,2.5l30.8,86.6l13.7-40.2l-16.2-46.5
	l0-0.2l-0.1-0.2c0,0,0-0.1,0-0.6c0-0.5,0.2-0.8,0.4-0.9c0.1-0.1,0.5-0.4,2-0.4h29.5c1.8,0,3,0.8,3.6,2.4l27.1,87.1l29.2-87
	c0.6-1.7,1.7-2.5,3.3-2.5h29.2c1.9,0,1.9,0.6,1.9,1c0,0.1,0,0.1,0,0.2c-0.1,0.3-0.2,0.7-0.2,1c-7.8,20.6-15.6,41.1-23.2,60.9
	c-7.7,20.1-15.6,40.7-23.3,61.2c-0.4,1-0.9,2.1-1.4,3.1c-0.5,1.1-1.1,2.1-1.7,3.1l-0.1,0.1c-0.1,0.3-0.5,1.1-2.5,1.1h-22.2
	C312.8,231.1,312.4,230.9,311.9,230.6z M176.4,341.6c-4-3.2-8.9-6.1-14.4-8.5c-5.4-2.3-11.4-4.6-17.9-6.7c-3.3-1.1-6.2-2.1-8.7-3
	c-2.4-0.9-4.4-1.9-6-2.9c-1.5-0.9-2.6-2-3.4-3c-0.7-1-1-2.2-1-3.6c0-1.4,0.3-2.6,0.9-3.5c0.7-1,1.5-1.8,2.6-2.4
	c1.2-0.6,2.6-1.1,4.2-1.4c3.2-0.6,7.1-0.8,10.6,0.3c1.8,0.5,3.5,1.2,5.1,2.1c1.6,0.8,3.2,1.8,4.6,2.8c1.4,1.1,2.8,2.1,3.9,3.1
	l0.8,0.7c0.9,0.8,1.7,1.4,2.4,1.9c0.9,0.7,2,1,3.2,1c1.4,0,2.8-0.7,4.2-2l13.9-14.8c0.9-0.9,1.5-1.8,2-2.5c0.5-0.9,0.8-1.9,0.8-2.9
	c0-1.1-0.5-2.3-1.5-3.7c-0.9-1.2-2.1-2.4-3.5-3.7c-1.4-1.2-3.1-2.5-5-3.9c-1.9-1.3-3.9-2.6-6-3.9c-5-2.8-10.1-4.8-15.3-6.1
	c-5.1-1.3-10.6-1.9-16.2-1.9c-7.4,0-14.3,0.9-20.3,2.7c-6.1,1.8-11.4,4.5-15.7,7.8c-4.4,3.4-7.8,7.5-10.1,12.3
	c-2.4,4.8-3.6,10.2-3.6,16c0,5.5,1,10.6,2.8,15c1.9,4.5,4.7,8.6,8.5,12.4c3.7,3.7,8.4,7.1,14,10c5.5,3,12,5.8,19.3,8.3
	c1.6,0.5,3.6,1.2,5.8,2c2.2,0.8,4.3,1.7,6.2,2.8c1.9,1.1,3.6,2.3,4.9,3.7c1.2,1.2,1.7,2.5,1.7,4c0,1.5-0.2,3-0.7,4.3
	c-0.4,1.3-1.2,2.4-2.2,3.4c-1,1-2.5,1.8-4.4,2.4c-1.9,0.6-4.4,1-7.3,1c-3.1,0-6.2-0.5-9-1.6c-2.9-1.1-5.9-2.7-8.9-4.7
	c-2-1.3-3.8-2.7-5.3-4.1c-1.6-1.5-2.9-2.6-4-3.4c-0.9-0.8-1.7-1.4-2.4-1.8c-2-1.2-3.8-1-6.5,0.9L83.9,382c-1.7,1.6-2.6,3.1-2.6,4.6
	c0,1.3,0.8,2.8,2.5,4.7c0.1,0.1,0.1,0.1,0.2,0.2l0.2,0.2c0.1,0.1,0.1,0.1,0.2,0.2l0.4,0.4c1,1,2.3,2.4,4,4.1
	c1.7,1.8,3.8,3.6,6.3,5.4c5.9,4.3,12.3,7.7,19.1,10.2c6.9,2.5,13.9,3.8,21,3.8c7.5,0,14.6-1.1,21.2-3.2c6.6-2.1,12.3-5.2,17.2-9.1
	c4.9-3.9,8.8-8.8,11.6-14.3c2.8-5.6,4.2-11.9,4.2-18.8c0-6.5-1.2-12.1-3.5-16.7C183.7,348.9,180.5,344.9,176.4,341.6z M182.6,387.7
	c-2.6,5.2-6.2,9.7-10.8,13.3c-4.6,3.7-10.1,6.6-16.3,8.6c-6.2,2-13,3.1-20.2,3.1c-6.7,0-13.5-1.2-20-3.6c-6.6-2.4-12.8-5.7-18.4-9.8
	c-2.3-1.7-4.3-3.4-5.9-5c-1.7-1.7-3-3-4-4.1l-0.1-0.1c-0.1-0.2-0.3-0.4-0.4-0.5c-0.1-0.2-0.3-0.3-0.4-0.4c-1.6-1.7-1.6-2.5-1.6-2.5
	c0-0.3,0.2-1,1.6-2.4l15.6-14.9c1.3-0.9,2-1,2.1-1c0.3,0,0.6,0.1,1,0.3c0.5,0.3,1.2,0.8,2,1.5l0,0c1,0.8,2.3,1.9,3.9,3.4
	c1.6,1.5,3.5,2.9,5.7,4.3c3.2,2.1,6.4,3.8,9.5,5c3.2,1.2,6.6,1.8,10.1,1.8c3.2,0,6-0.4,8.2-1.1c2.3-0.8,4.1-1.8,5.5-3.1
	c1.4-1.3,2.4-2.9,3-4.6c0.6-1.7,0.9-3.4,0.9-5.3c0-2.3-0.9-4.3-2.6-6.1c-1.5-1.6-3.4-3-5.6-4.2c-2.1-1.2-4.3-2.2-6.7-3
	c-2.2-0.8-4.2-1.5-5.8-2c-7.1-2.5-13.5-5.2-18.8-8.1c-5.3-2.9-9.8-6.1-13.3-9.5c-3.5-3.4-6.1-7.3-7.8-11.4
	c-1.7-4.1-2.6-8.8-2.6-13.9c0-5.4,1.1-10.3,3.2-14.7c2.2-4.4,5.3-8.2,9.3-11.3c4-3.1,9-5.6,14.7-7.3c5.8-1.7,12.3-2.6,19.4-2.6
	c5.4,0,10.6,0.6,15.5,1.8c4.9,1.2,9.8,3.2,14.5,5.8c2,1.2,4,2.4,5.8,3.7c1.8,1.3,3.4,2.5,4.7,3.7c1.3,1.1,2.4,2.2,3.1,3.2
	c0.8,1.1,0.9,1.7,0.9,1.9c0,0.5-0.1,1-0.4,1.4c-0.3,0.6-0.9,1.2-1.6,2l-13.9,14.8c-0.7,0.7-1.4,1.1-2,1.1c-0.5,0-1-0.1-1.5-0.5
	c-0.6-0.4-1.4-1-2.2-1.7l-0.8-0.8c-1.2-1.1-2.6-2.1-4.1-3.2c-1.5-1.1-3.2-2.2-5-3.1c-1.8-0.9-3.7-1.7-5.6-2.3
	c-4-1.2-8.4-1.1-12.1-0.4c-1.9,0.4-3.6,0.9-5.1,1.7c-1.5,0.8-2.8,2-3.7,3.3c-1,1.4-1.4,3.2-1.4,5.1c0,2,0.5,3.8,1.5,5.2
	c1,1.4,2.4,2.7,4.3,3.9c1.8,1.1,4,2.2,6.6,3.1c2.5,0.9,5.5,2,8.8,3.1c6.4,2.1,12.3,4.3,17.6,6.6c5.3,2.3,9.9,5,13.7,8
	c3.7,3,6.7,6.7,8.8,10.9c2.1,4.2,3.2,9.4,3.2,15.4C186.5,376.6,185.2,382.5,182.6,387.7z M305.8,379.8h-59.5v-20.2h44
	c1.7,0,3.1-0.6,4-1.7c0.9-1.1,1.4-2.2,1.4-3.4v-19.6c0-2.2-1-3.4-1.8-3.9c-1-0.7-2.3-1.1-3.7-1.1h-43.9v-19.5h57.3
	c2.3,0,3.7-1.1,4.4-2c0.9-1.2,1.4-2.5,1.4-3.9V282c0-1.7-0.5-3.1-1.5-4.2c-1-1.1-2.4-1.7-4.2-1.7h-90c-1.7,0-3.1,0.5-4,1.6
	c-1,1-1.4,2.4-1.4,4.1v126.7c0,1.8,0.5,3.1,1.6,4.1c1,0.9,2.3,1.3,3.9,1.3h91.8c3.6,0,4.8-1.9,5.1-3.3c0.5-0.7,0.8-1.5,0.8-2.3
	v-22.8C311.4,381.9,309.3,379.8,305.8,379.8z M308.4,408.3c0,0.1,0,0.3-0.3,0.6l-0.4,0.4l-0.1,0.5c-0.1,0.5-0.2,1.2-2.2,1.2h-91.8
	c-0.8,0-1.5-0.2-1.9-0.6c-0.4-0.3-0.6-0.9-0.6-1.8V281.9c0-0.9,0.2-1.6,0.6-2c0.4-0.4,1-0.6,1.8-0.6h90c0.9,0,1.6,0.2,2,0.7
	c0.5,0.5,0.7,1.2,0.7,2.1v22.4c0,0.7-0.3,1.4-0.8,2c-0.3,0.4-0.8,0.8-2,0.8h-60.3v25.5h46.9c0.8,0,1.5,0.2,2,0.5
	c0.1,0.1,0.5,0.4,0.5,1.5v19.6c0,0.5-0.2,1-0.6,1.5c-0.2,0.3-0.7,0.6-1.8,0.6h-47v26.2h62.5c1.9,0,2.6,0.7,2.6,2.7V408.3z
	 M428.3,379.8h-59.5v-20.2h44c1.7,0,3.1-0.6,4-1.7c0.9-1.1,1.4-2.2,1.4-3.4v-19.6c0-2.2-1-3.4-1.8-3.9c-1-0.7-2.3-1.1-3.7-1.1h-43.9
	v-19.5h57.3c2.3,0,3.7-1.1,4.4-2c0.9-1.2,1.4-2.5,1.4-3.9V282c0-1.7-0.5-3.1-1.5-4.2c-1-1.1-2.4-1.7-4.2-1.7h-90
	c-1.7,0-3.1,0.5-4,1.6c-1,1-1.4,2.4-1.4,4.1v126.7c0,1.8,0.5,3.1,1.6,4.1c1,0.9,2.3,1.3,3.9,1.3h91.8c3.6,0,4.8-1.9,5.1-3.3
	c0.5-0.7,0.8-1.5,0.8-2.3v-22.8C433.9,381.9,431.9,379.8,428.3,379.8z M430.9,408.3c0,0.1,0,0.3-0.3,0.6l-0.4,0.4l-0.1,0.5
	c-0.1,0.5-0.2,1.2-2.2,1.2h-91.8c-0.8,0-1.5-0.2-1.9-0.6c-0.4-0.3-0.6-0.9-0.6-1.8V281.9c0-0.9,0.2-1.5,0.6-2c0.4-0.4,1-0.6,1.8-0.6
	h90c0.9,0,1.5,0.2,2,0.7c0.5,0.5,0.7,1.2,0.7,2.1v22.4c0,0.7-0.3,1.4-0.8,2c-0.3,0.4-0.8,0.8-2,0.8h-60.3v25.5h46.9
	c0.8,0,1.5,0.2,2,0.5c0.1,0.1,0.5,0.4,0.5,1.5v19.6c0,0.5-0.2,1-0.6,1.5c-0.2,0.3-0.7,0.6-1.8,0.6h-47v26.2h62.5
	c1.9,0,2.6,0.7,2.6,2.7V408.3z"/>
</svg>
